%FSAX24Y24*%
%MOIN*%
G70*
G01*
G75*
%ADD10C,0.0070*%
%ADD11R,0.0197X0.0630*%
%ADD12R,0.0630X0.0197*%
%ADD13R,0.0600X0.0500*%
%ADD14R,0.0689X0.0256*%
%ADD15R,0.0512X0.0630*%
%ADD16C,0.0100*%
%ADD17C,0.0150*%
%ADD18C,0.0300*%
%ADD19C,0.0650*%
%ADD20R,0.0650X0.0650*%
%ADD21C,0.0700*%
%ADD22R,0.0700X0.0700*%
%ADD23C,0.0250*%
D10*
X013550Y016642D02*
X013442Y016593D01*
X013550Y016642D02*
X013442Y016593D01*
X013263Y016003D02*
X013383Y016053D01*
X013263Y016003D02*
X013383Y016052D01*
X012362D02*
X012483Y016003D01*
X012362Y016053D02*
X012483Y016003D01*
X013352Y015042D02*
X013472Y015092D01*
X013352Y015042D02*
X013472Y015092D01*
X013550Y019118D02*
Y021160D01*
X013490Y019118D02*
Y021160D01*
X013282Y019240D02*
X013550D01*
X013282Y019180D02*
X013550D01*
X013282Y019120D02*
X013550D01*
X013282Y019118D02*
X013550D01*
X013430D02*
Y021160D01*
X013370Y019118D02*
Y021160D01*
X013310Y019118D02*
Y021160D01*
X013282Y019118D02*
Y019293D01*
X013250D02*
Y021160D01*
X013550Y016642D02*
Y018698D01*
X013490Y016626D02*
Y018698D01*
X013282D02*
X013550D01*
X013282Y018640D02*
X013550D01*
X013282Y018580D02*
X013550D01*
X013430Y016580D02*
Y018698D01*
X013370Y016520D02*
Y018698D01*
X013310Y016460D02*
Y018698D01*
X013282Y018523D02*
Y018698D01*
X013250Y018093D02*
Y018523D01*
X012685Y020920D02*
X013550D01*
X012685Y020860D02*
X013550D01*
X012685Y020800D02*
X013550D01*
X012685Y020740D02*
X013550D01*
X012685Y020680D02*
X013550D01*
X012685Y020620D02*
X013550D01*
X012685Y020560D02*
X013550D01*
X012685Y020500D02*
X013550D01*
X012685Y020440D02*
X013550D01*
X012685Y020380D02*
X013550D01*
X012685Y020320D02*
X013550D01*
X012685Y020260D02*
X013550D01*
X012685Y020200D02*
X013550D01*
X012685Y020140D02*
X013550D01*
X012685Y020080D02*
X013550D01*
X012685Y020020D02*
X013550D01*
X013190Y019293D02*
Y021160D01*
X012412Y019293D02*
X013282D01*
X012412Y018523D02*
X013282D01*
X012412Y018093D02*
X013282D01*
Y018040D02*
X013550D01*
X013282Y017980D02*
X013550D01*
X013282Y017920D02*
X013550D01*
X013282Y017860D02*
X013550D01*
X013282Y017800D02*
X013550D01*
X013282Y017740D02*
X013550D01*
X013282Y017680D02*
X013550D01*
X013282Y017620D02*
X013550D01*
X013282Y017560D02*
X013550D01*
X013282Y017500D02*
X013550D01*
X013282Y017440D02*
X013550D01*
X013282Y017380D02*
X013550D01*
X013510Y016180D02*
X013550D01*
X013450Y016120D02*
X013550D01*
X013282Y017323D02*
Y018093D01*
X013383Y016053D02*
X013550Y016220D01*
X013250Y016400D02*
Y017323D01*
X013390Y016060D02*
X013550D01*
X013244Y017140D02*
X013550D01*
X013244Y017080D02*
X013550D01*
X013244Y017020D02*
X013550D01*
X013244Y016960D02*
X013550D01*
X013244Y016900D02*
X013550D01*
X012462Y017158D02*
X013244D01*
X012412Y017323D02*
X013282D01*
X013244Y016840D02*
X013550D01*
X013244Y016780D02*
X013550D01*
X013244Y016720D02*
X013550D01*
X013244Y016660D02*
X013550D01*
X013244Y016600D02*
X013450D01*
X013244Y016394D02*
X013442Y016593D01*
X013244Y016540D02*
X013390D01*
X013244Y016480D02*
X013330D01*
X013244Y016394D02*
Y017158D01*
X012483Y016003D02*
X013263D01*
X013130Y019293D02*
Y021160D01*
X013070Y019293D02*
Y021160D01*
X013010Y019293D02*
Y021160D01*
X012950Y019293D02*
Y021160D01*
X012890Y019293D02*
Y021160D01*
X012830Y019293D02*
Y021160D01*
X012770Y019293D02*
Y021160D01*
X012710Y019293D02*
Y021160D01*
X012650Y020945D02*
Y021160D01*
X012685Y019975D02*
Y020945D01*
X012650Y019293D02*
Y019975D01*
X013190Y018093D02*
Y018523D01*
X013130Y018093D02*
Y018523D01*
X013070Y018093D02*
Y018523D01*
X013010Y018093D02*
Y018523D01*
X012950Y018093D02*
Y018523D01*
X012890Y018093D02*
Y018523D01*
X012830Y018093D02*
Y018523D01*
X012770Y018093D02*
Y018523D01*
X012710Y018093D02*
Y018523D01*
X012590Y020945D02*
Y021160D01*
X012530Y020945D02*
Y021160D01*
X012470Y020945D02*
Y021160D01*
X012590Y019293D02*
Y019975D01*
X012530Y019293D02*
Y019975D01*
X012410Y020945D02*
Y021160D01*
X012470Y019293D02*
Y019975D01*
X012350Y020945D02*
Y021160D01*
X012412Y018523D02*
Y019293D01*
X012350D02*
Y019975D01*
X012650Y018093D02*
Y018523D01*
X012590Y018093D02*
Y018523D01*
X012530Y018093D02*
Y018523D01*
X012470Y018093D02*
Y018523D01*
X012382D02*
Y019293D01*
X012410Y016486D02*
Y019975D01*
X012350Y018093D02*
Y018523D01*
X012412Y017323D02*
Y018093D01*
X012382Y017323D02*
Y018093D01*
X013190Y017158D02*
Y017323D01*
X013130Y017158D02*
Y017323D01*
X013070Y017158D02*
Y017323D01*
X013010Y017158D02*
Y017323D01*
X012950Y017158D02*
Y017323D01*
X012890Y017158D02*
Y017323D01*
X012830Y017158D02*
Y017323D01*
X012770Y017158D02*
Y017323D01*
X012710Y017158D02*
Y017323D01*
X012650Y017158D02*
Y017323D01*
X013190Y015662D02*
Y016003D01*
X013130Y015662D02*
Y016003D01*
X013070Y015662D02*
Y016003D01*
X013010Y015662D02*
Y016003D01*
X012950Y015662D02*
Y016003D01*
X012590Y017158D02*
Y017323D01*
X012530Y017158D02*
Y017323D01*
X012890Y015662D02*
Y016003D01*
X012830Y015662D02*
Y016003D01*
X012470Y017158D02*
Y017323D01*
X012338Y017140D02*
X012462D01*
X012338Y017080D02*
X012462D01*
X012338Y017020D02*
X012462D01*
X012338Y016960D02*
X012462D01*
X012338Y016900D02*
X012462D01*
X012338Y016840D02*
X012462D01*
X012338Y016780D02*
X012462D01*
X012338Y016720D02*
X012462D01*
X012338Y016660D02*
X012462D01*
X012338Y016600D02*
X012462D01*
X012356Y016540D02*
X012462D01*
X012350Y016546D02*
Y017323D01*
X012462Y016434D02*
Y017158D01*
X012338Y016558D02*
Y017158D01*
X012416Y016480D02*
X012462D01*
X012338Y016558D02*
X012462Y016434D01*
X013550Y015650D02*
Y016220D01*
X013490Y015590D02*
Y016160D01*
X013282Y015382D02*
X013550Y015650D01*
X013472Y015092D02*
X013550Y015170D01*
X013480Y015100D02*
X013550D01*
X013288Y014560D02*
X013550D01*
X013430Y015530D02*
Y016100D01*
X013370Y015470D02*
Y016041D01*
X013310Y015410D02*
Y016009D01*
X013288Y014500D02*
X013550D01*
Y013222D02*
Y015170D01*
X013288Y014440D02*
X013550D01*
X013288Y014380D02*
X013550D01*
X013288Y014320D02*
X013550D01*
X013490Y013222D02*
Y015110D01*
X013430Y013222D02*
Y015061D01*
X013370Y013222D02*
Y015043D01*
X013310Y013222D02*
Y015042D01*
X013288Y013827D02*
Y014597D01*
X013244Y015640D02*
X013540D01*
X013244Y015580D02*
X013480D01*
X013244Y015520D02*
X013420D01*
X013244Y015460D02*
X013360D01*
X013244Y015040D02*
X013550D01*
X013250Y015382D02*
Y016003D01*
X013244Y015382D02*
Y015662D01*
X012462D02*
X013244D01*
Y015400D02*
X013300D01*
X013244Y015382D02*
X013282D01*
X013244Y014980D02*
X013550D01*
X013244Y014920D02*
X013550D01*
X013244Y014860D02*
X013550D01*
X013244Y014800D02*
X013550D01*
X013023Y014740D02*
X013550D01*
X013244Y015042D02*
X013352D01*
X013023Y014680D02*
X013550D01*
X013023Y014620D02*
X013550D01*
X013288Y014260D02*
X013550D01*
X013023Y014597D02*
X013288D01*
Y014200D02*
X013550D01*
X013288Y014140D02*
X013550D01*
X013288Y014080D02*
X013550D01*
X013288Y014020D02*
X013550D01*
X013288Y013960D02*
X013550D01*
X013288Y013900D02*
X013550D01*
X013288Y013840D02*
X013550D01*
X013288Y013222D02*
Y013397D01*
Y013360D02*
X013550D01*
X013288Y013300D02*
X013550D01*
X013288Y013240D02*
X013550D01*
X013288Y013222D02*
X013550D01*
Y011360D02*
Y012802D01*
X013288D02*
X013550D01*
X013288Y012760D02*
X013550D01*
X013288Y012700D02*
X013550D01*
X013490Y011360D02*
Y012802D01*
X013430Y011360D02*
Y012802D01*
X013370Y011360D02*
Y012802D01*
X013310Y011360D02*
Y012802D01*
X013288Y012627D02*
Y012802D01*
Y012640D02*
X013550D01*
X012685Y012400D02*
X013550D01*
X012685Y012340D02*
X013550D01*
X012685Y012280D02*
X013550D01*
X012685Y012220D02*
X013550D01*
X012418Y013827D02*
X013288D01*
X012418Y013397D02*
X013288D01*
X012418Y012627D02*
X013288D01*
X012685Y012160D02*
X013550D01*
X012685Y012100D02*
X013550D01*
X012685Y012040D02*
X013550D01*
X012685Y011980D02*
X013550D01*
X012685Y011920D02*
X013550D01*
X012685Y011860D02*
X013550D01*
X012685Y011800D02*
X013550D01*
X012685Y011740D02*
X013550D01*
X012685Y011680D02*
X013550D01*
X012685Y011620D02*
X013550D01*
X012685Y011560D02*
X013550D01*
X012685Y011500D02*
X013550D01*
X012770Y015662D02*
Y016003D01*
X013244Y014762D02*
Y015042D01*
X012710Y015662D02*
Y016003D01*
X013023Y014762D02*
X013244D01*
X013250Y014597D02*
Y015042D01*
X012462Y014762D02*
X012683D01*
X012650Y015662D02*
Y016003D01*
X012590Y015662D02*
Y016003D01*
X012530Y015662D02*
Y016003D01*
X012470Y015662D02*
Y016003D01*
X012462Y014762D02*
Y015662D01*
X013190Y014597D02*
Y014762D01*
X013130Y014597D02*
Y014762D01*
X013070Y014597D02*
Y014762D01*
X013023Y014597D02*
Y014762D01*
X012683Y014597D02*
Y014762D01*
X012650Y014597D02*
Y014762D01*
X012590Y014597D02*
Y014762D01*
X012410Y012445D02*
Y016019D01*
X012530Y014597D02*
Y014762D01*
X012470Y014597D02*
Y014762D01*
X012338Y015640D02*
X012462D01*
X012338Y015580D02*
X012462D01*
X012338Y015520D02*
X012462D01*
X012338Y015460D02*
X012462D01*
X012338Y015400D02*
X012462D01*
X012338Y015340D02*
X012462D01*
X012338Y015280D02*
X012462D01*
X012338Y015220D02*
X012462D01*
X012338Y015160D02*
X012462D01*
X012338Y015100D02*
X012462D01*
X012338Y015040D02*
X012462D01*
X012338Y014980D02*
X012462D01*
X012338Y014920D02*
X012462D01*
X012418Y014597D02*
X012683D01*
X012338Y014860D02*
X012462D01*
X012338Y014762D02*
Y015662D01*
X012350Y014597D02*
Y016065D01*
X012338Y014800D02*
X012462D01*
X012418Y013827D02*
Y014597D01*
X012290D02*
Y014762D01*
X013250Y013397D02*
Y013827D01*
X013190Y013397D02*
Y013827D01*
X013130Y013397D02*
Y013827D01*
X013070Y013397D02*
Y013827D01*
X013010Y013397D02*
Y013827D01*
X012950Y013397D02*
Y013827D01*
X012890Y013397D02*
Y013827D01*
X012830Y013397D02*
Y013827D01*
X012770Y013397D02*
Y013827D01*
X012710Y013397D02*
Y013827D01*
X012685Y011475D02*
Y012445D01*
X013250Y011360D02*
Y012627D01*
X013190Y011360D02*
Y012627D01*
X013130Y011360D02*
Y012627D01*
X013070Y011360D02*
Y012627D01*
X013010Y011360D02*
Y012627D01*
X012950Y011360D02*
Y012627D01*
X012890Y011360D02*
Y012627D01*
X012830Y011360D02*
Y012627D01*
X012770Y011360D02*
Y012627D01*
X012710Y011360D02*
Y012627D01*
X012650Y013397D02*
Y013827D01*
X012590Y013397D02*
Y013827D01*
X012530Y013397D02*
Y013827D01*
X012650Y012445D02*
Y012627D01*
X012470Y013397D02*
Y013827D01*
X012388D02*
Y014597D01*
X012350Y013397D02*
Y013827D01*
X012290Y013397D02*
Y013827D01*
X012418Y012627D02*
Y013397D01*
X012388Y012627D02*
Y013397D01*
X012590Y012445D02*
Y012627D01*
X012650Y011360D02*
Y011475D01*
X012530Y012445D02*
Y012627D01*
X012590Y011360D02*
Y011475D01*
X012530Y011360D02*
Y011475D01*
X012470Y012445D02*
Y012627D01*
Y011360D02*
Y011475D01*
X012350Y012445D02*
Y012627D01*
X012410Y011360D02*
Y011475D01*
X012350Y011360D02*
Y011475D01*
X012290Y020945D02*
Y021160D01*
X012230Y020945D02*
Y021160D01*
X012170Y020945D02*
Y021160D01*
X012110Y020945D02*
Y021160D01*
X012050Y020945D02*
Y021160D01*
X011990Y020945D02*
Y021160D01*
X011930Y020945D02*
Y021160D01*
X011870Y020945D02*
Y021160D01*
X012290Y019293D02*
Y019975D01*
X012230Y019293D02*
Y019975D01*
X012170Y019293D02*
Y019975D01*
X012110Y019293D02*
Y019975D01*
X012050Y019293D02*
Y019975D01*
X011990Y019293D02*
Y019975D01*
X011930Y019293D02*
Y019975D01*
X011870Y019293D02*
Y019975D01*
X011350Y021160D02*
X013550D01*
X011350Y021100D02*
X013550D01*
X011350Y021040D02*
X013550D01*
X011350Y020980D02*
X013550D01*
X011350Y019960D02*
X013550D01*
X011715Y020945D02*
X012685D01*
X011715Y019975D02*
X012685D01*
X011350Y019900D02*
X013550D01*
X011350Y019840D02*
X013550D01*
X011350Y019780D02*
X013550D01*
X011350Y019720D02*
X013550D01*
X011350Y019660D02*
X013550D01*
X011350Y019600D02*
X013550D01*
X011350Y019540D02*
X013550D01*
X011350Y019480D02*
X013550D01*
X011350Y019420D02*
X013550D01*
X011350Y019360D02*
X013550D01*
X011512Y019293D02*
X012382D01*
X011350Y019300D02*
X013550D01*
X012290Y018093D02*
Y018523D01*
X012230Y018093D02*
Y018523D01*
X012170Y018093D02*
Y018523D01*
X012110Y018093D02*
Y018523D01*
X012117Y017320D02*
X013550D01*
X012117Y017323D02*
X012382D01*
X012050Y018093D02*
Y018523D01*
X011990Y018093D02*
Y018523D01*
X011930Y018093D02*
Y018523D01*
X012117Y017260D02*
X013550D01*
X012290Y017158D02*
Y017323D01*
X012117Y017200D02*
X013550D01*
X012157Y016258D02*
X012362Y016053D01*
X012117Y017158D02*
X012338D01*
X012230D02*
Y017323D01*
X012170Y017158D02*
Y017323D01*
X012117Y017158D02*
Y017323D01*
X012290Y015662D02*
Y016125D01*
X011556Y016258D02*
X012157D01*
X011350Y018520D02*
X013550D01*
X011350Y018460D02*
X013550D01*
X011350Y018400D02*
X013550D01*
X011350Y018340D02*
X013550D01*
X011350Y018280D02*
X013550D01*
X011512Y018523D02*
X012382D01*
X011350Y018220D02*
X013550D01*
X011350Y018160D02*
X013550D01*
X011512Y018093D02*
X012382D01*
X011350Y018100D02*
X013550D01*
X011350Y016000D02*
X013550D01*
X011350Y015940D02*
X013550D01*
X011350Y015880D02*
X013550D01*
X011350Y015820D02*
X013550D01*
X011350Y015760D02*
X013550D01*
X011350Y016240D02*
X012175D01*
X011350Y016180D02*
X012235D01*
X011350Y016120D02*
X012295D01*
X011350Y016060D02*
X012355D01*
X011350Y015700D02*
X013550D01*
X011810Y020945D02*
Y021160D01*
X011750Y020945D02*
Y021160D01*
X011350Y020920D02*
X011715D01*
X011350Y020860D02*
X011715D01*
X011350Y020800D02*
X011715D01*
X011350Y020740D02*
X011715D01*
X011350Y020680D02*
X011715D01*
Y019975D02*
Y020945D01*
X011350Y020620D02*
X011715D01*
X011350Y020560D02*
X011715D01*
X011350Y020500D02*
X011715D01*
X011810Y019293D02*
Y019975D01*
X011870Y018093D02*
Y018523D01*
X011750Y019293D02*
Y019975D01*
X011810Y018093D02*
Y018523D01*
X011750Y018093D02*
Y018523D01*
X011690Y019293D02*
Y021160D01*
X011630Y019293D02*
Y021160D01*
X011570Y019293D02*
Y021160D01*
X011690Y018093D02*
Y018523D01*
X011512D02*
Y019293D01*
X011350Y020440D02*
X011715D01*
X011350Y020380D02*
X011715D01*
X011350Y020320D02*
X011715D01*
X011350Y020260D02*
X011715D01*
X011350Y020200D02*
X011715D01*
X011350Y020140D02*
X011715D01*
X011350Y020080D02*
X011715D01*
X011350Y020020D02*
X011715D01*
X011350Y019240D02*
X011512D01*
X011350Y019180D02*
X011512D01*
X011350Y019120D02*
X011512D01*
X011350Y019060D02*
X011512D01*
X011350Y019000D02*
X011512D01*
X011350Y018940D02*
X011512D01*
X011350Y018880D02*
X011512D01*
X011350Y018820D02*
X011512D01*
X011350Y018760D02*
X011512D01*
X011350Y018700D02*
X011512D01*
X011350Y018640D02*
X011512D01*
X011350Y018580D02*
X011512D01*
X011630Y018093D02*
Y018523D01*
X011570Y018093D02*
Y018523D01*
X011350Y018040D02*
X011512D01*
X011350Y017980D02*
X011512D01*
X011350Y017920D02*
X011512D01*
X011350Y017860D02*
X011512D01*
X011350Y017800D02*
X011512D01*
X011350Y017740D02*
X011512D01*
X011350Y017680D02*
X011512D01*
X011350Y017620D02*
X011512D01*
X011350Y017560D02*
X011512D01*
X011777Y017158D02*
Y017323D01*
X011750Y017158D02*
Y017323D01*
X011512D02*
X011777D01*
X011690Y017158D02*
Y017323D01*
X011556Y017158D02*
X011777D01*
X011512Y017323D02*
Y018093D01*
X011630Y017158D02*
Y017323D01*
X011350Y017500D02*
X011512D01*
X011570Y017158D02*
Y017323D01*
X011556Y016258D02*
Y017158D01*
X011350Y017320D02*
X011777D01*
X011350Y017260D02*
X011777D01*
X011350Y017200D02*
X011777D01*
X011350Y017140D02*
X011556D01*
X011350Y017080D02*
X011556D01*
X011350Y017440D02*
X011512D01*
X011350Y017380D02*
X011512D01*
X011350Y017020D02*
X011556D01*
X011350Y016960D02*
X011556D01*
X011350Y016900D02*
X011556D01*
X011350Y016840D02*
X011556D01*
X011350Y016780D02*
X011556D01*
X011350Y016720D02*
X011556D01*
X011350Y016660D02*
X011556D01*
X011350Y016600D02*
X011556D01*
X011350Y016540D02*
X011556D01*
X011350Y016480D02*
X011556D01*
X011350Y016420D02*
X011556D01*
X011350Y016360D02*
X011556D01*
X011350Y016300D02*
X011556D01*
X012230Y015662D02*
Y016185D01*
X012170Y015662D02*
Y016245D01*
X012110Y015662D02*
Y016258D01*
X012230Y014597D02*
Y014762D01*
X012170Y014597D02*
Y014762D01*
X012050Y015662D02*
Y016258D01*
X011990Y015662D02*
Y016258D01*
X011930Y015662D02*
Y016258D01*
X012110Y014597D02*
Y014762D01*
X012050Y014597D02*
Y014762D01*
X012230Y013397D02*
Y013827D01*
X012170Y013397D02*
Y013827D01*
X012110Y013397D02*
Y013827D01*
X011990Y014597D02*
Y014762D01*
X012050Y013397D02*
Y013827D01*
X011990Y013397D02*
Y013827D01*
X011556Y015662D02*
X012338D01*
X011556Y014762D02*
X012338D01*
X011350Y014740D02*
X012683D01*
X011350Y014680D02*
X012683D01*
X011350Y014620D02*
X012683D01*
X011870Y015662D02*
Y016258D01*
X011810Y015662D02*
Y016258D01*
X011930Y014597D02*
Y014762D01*
X011518Y014597D02*
X012388D01*
X011518Y013827D02*
X012388D01*
X011350Y013780D02*
X013550D01*
X011350Y013720D02*
X013550D01*
X011870Y014597D02*
Y014762D01*
X011930Y013397D02*
Y013827D01*
X011810Y014597D02*
Y014762D01*
X011870Y013397D02*
Y013827D01*
X011810Y013397D02*
Y013827D01*
X012290Y012445D02*
Y012627D01*
X012230Y012445D02*
Y012627D01*
X012170Y012445D02*
Y012627D01*
X012110Y012445D02*
Y012627D01*
X012050Y012445D02*
Y012627D01*
X011990Y012445D02*
Y012627D01*
X011930Y012445D02*
Y012627D01*
X011870Y012445D02*
Y012627D01*
X012290Y011360D02*
Y011475D01*
X012230Y011360D02*
Y011475D01*
X012170Y011360D02*
Y011475D01*
X012110Y011360D02*
Y011475D01*
X012050Y011360D02*
Y011475D01*
X011990Y011360D02*
Y011475D01*
X011930Y011360D02*
Y011475D01*
X011350Y013660D02*
X013550D01*
X011350Y013600D02*
X013550D01*
X011350Y013540D02*
X013550D01*
X011350Y013480D02*
X013550D01*
X011350Y013420D02*
X013550D01*
X011518Y013397D02*
X012388D01*
X011518Y012627D02*
X012388D01*
X011350Y012580D02*
X013550D01*
X011350Y012520D02*
X013550D01*
X011350Y012460D02*
X013550D01*
X011715Y012445D02*
X012685D01*
X011350Y011440D02*
X013550D01*
X011350Y011380D02*
X013550D01*
X011350Y011360D02*
X013550D01*
X011810Y012445D02*
Y012627D01*
X011715Y011475D02*
X012685D01*
X011870Y011360D02*
Y011475D01*
X011810Y011360D02*
Y011475D01*
X011750Y015662D02*
Y016258D01*
X011690Y015662D02*
Y016258D01*
X011630Y015662D02*
Y016258D01*
X011570Y015662D02*
Y016258D01*
X011350Y015640D02*
X011556D01*
X011350Y015580D02*
X011556D01*
X011350Y015520D02*
X011556D01*
X011350Y015460D02*
X011556D01*
X011350Y015400D02*
X011556D01*
X011350Y015340D02*
X011556D01*
X011350Y015280D02*
X011556D01*
X011750Y014597D02*
Y014762D01*
X011690Y014597D02*
Y014762D01*
X011556D02*
Y015662D01*
X011630Y014597D02*
Y014762D01*
X011570Y014597D02*
Y014762D01*
X011510Y011360D02*
Y021160D01*
X011450Y011360D02*
Y021160D01*
X011390Y011360D02*
Y021160D01*
X011518Y013827D02*
Y014597D01*
X011350Y011360D02*
Y021160D01*
Y015220D02*
X011556D01*
X011350Y015160D02*
X011556D01*
X011350Y015100D02*
X011556D01*
X011350Y015040D02*
X011556D01*
X011350Y014980D02*
X011556D01*
X011350Y014920D02*
X011556D01*
X011350Y014860D02*
X011556D01*
X011350Y014800D02*
X011556D01*
X011350Y014560D02*
X011518D01*
X011350Y014500D02*
X011518D01*
X011350Y014440D02*
X011518D01*
X011350Y014380D02*
X011518D01*
X011350Y014320D02*
X011518D01*
X011350Y014260D02*
X011518D01*
X011350Y014200D02*
X011518D01*
X011350Y014140D02*
X011518D01*
X011350Y014080D02*
X011518D01*
X011350Y014020D02*
X011518D01*
X011350Y013960D02*
X011518D01*
X011350Y013900D02*
X011518D01*
X011750Y013397D02*
Y013827D01*
X011690Y013397D02*
Y013827D01*
X011630Y013397D02*
Y013827D01*
X011350Y013840D02*
X011518D01*
X011570Y013397D02*
Y013827D01*
X011350Y013360D02*
X011518D01*
X011350Y013300D02*
X011518D01*
X011350Y013240D02*
X011518D01*
X011350Y013180D02*
X011518D01*
X011350Y013120D02*
X011518D01*
X011350Y013060D02*
X011518D01*
X011750Y012445D02*
Y012627D01*
X011690Y011360D02*
Y012627D01*
X011630Y011360D02*
Y012627D01*
X011750Y011360D02*
Y011475D01*
X011715D02*
Y012445D01*
X011350Y013000D02*
X011518D01*
Y012627D02*
Y013397D01*
X011350Y012940D02*
X011518D01*
X011570Y011360D02*
Y012627D01*
X011350Y012880D02*
X011518D01*
X011350Y012400D02*
X011715D01*
X011350Y012340D02*
X011715D01*
X011350Y012280D02*
X011715D01*
X011350Y012220D02*
X011715D01*
X011350Y012160D02*
X011715D01*
X011350Y012820D02*
X011518D01*
X011350Y012760D02*
X011518D01*
X011350Y012700D02*
X011518D01*
X011350Y012640D02*
X011518D01*
X011350Y012100D02*
X011715D01*
X011350Y012040D02*
X011715D01*
X011350Y011980D02*
X011715D01*
X011350Y011920D02*
X011715D01*
X011350Y011860D02*
X011715D01*
X011350Y011800D02*
X011715D01*
X011350Y011740D02*
X011715D01*
X011350Y011680D02*
X011715D01*
X011350Y011620D02*
X011715D01*
X011350Y011560D02*
X011715D01*
X011350Y011500D02*
X011715D01*
X011947Y016708D02*
Y017708D01*
X011953Y013012D02*
Y014212D01*
X012853Y015212D02*
X013352D01*
X012853Y014212D02*
Y015212D01*
X013352D02*
X014025Y015885D01*
Y016158D01*
X013563Y016473D02*
X014025D01*
X013263Y016173D02*
X013563Y016473D01*
X012483Y016173D02*
X013263D01*
X011947Y016708D02*
X012483Y016173D01*
X011947Y014217D02*
Y015212D01*
X012847Y016714D02*
Y017708D01*
D11*
X016702Y018835D02*
D03*
X016387D02*
D03*
X016072D02*
D03*
X015757D02*
D03*
X015443D02*
D03*
X015128D02*
D03*
X014813D02*
D03*
X014498D02*
D03*
X016702Y015685D02*
D03*
X016387D02*
D03*
X016072D02*
D03*
X015757D02*
D03*
X015443D02*
D03*
X015128D02*
D03*
X014813D02*
D03*
X014498D02*
D03*
D12*
X017175Y016158D02*
D03*
Y016473D02*
D03*
Y016788D02*
D03*
Y017103D02*
D03*
Y017417D02*
D03*
Y017732D02*
D03*
Y018047D02*
D03*
Y018362D02*
D03*
X014025Y016158D02*
D03*
Y016473D02*
D03*
Y016788D02*
D03*
Y017103D02*
D03*
Y017417D02*
D03*
Y017732D02*
D03*
Y018047D02*
D03*
Y018362D02*
D03*
D13*
X012847Y017708D02*
D03*
X011947D02*
D03*
X011953Y014212D02*
D03*
X012853D02*
D03*
X011947Y018908D02*
D03*
X012847D02*
D03*
X019400Y015360D02*
D03*
X020300D02*
D03*
X012853Y013012D02*
D03*
X011953D02*
D03*
X020300Y012960D02*
D03*
X019400D02*
D03*
X020300Y014160D02*
D03*
X019400D02*
D03*
D14*
X020605Y017360D02*
D03*
Y016360D02*
D03*
Y016860D02*
D03*
Y019360D02*
D03*
Y018860D02*
D03*
Y018360D02*
D03*
Y017860D02*
D03*
X018400Y019360D02*
D03*
Y018860D02*
D03*
Y018360D02*
D03*
Y017860D02*
D03*
Y016360D02*
D03*
Y016860D02*
D03*
Y017360D02*
D03*
D15*
X012853Y016708D02*
D03*
Y015212D02*
D03*
X011947D02*
D03*
Y016708D02*
D03*
D16*
X012847Y017708D02*
X013247D01*
X012853Y016708D02*
X013209D01*
X012847Y017708D02*
Y018058D01*
X012447Y017708D02*
X012847D01*
Y017358D02*
Y017708D01*
X012853Y016708D02*
Y017123D01*
X012497Y016708D02*
X012853D01*
X012200Y020460D02*
Y020910D01*
Y020460D02*
X012650D01*
X012200Y020010D02*
Y020460D01*
X011947Y018908D02*
X012347D01*
X011947D02*
Y019258D01*
X011750Y020460D02*
X012200D01*
X011947Y018558D02*
Y018908D01*
X011547D02*
X011947D01*
Y015212D02*
X012303D01*
X011947D02*
Y015627D01*
X011953Y014212D02*
X012353D01*
X011953D02*
Y014562D01*
Y013862D02*
Y014212D01*
X011591Y015212D02*
X011947D01*
Y014797D02*
Y015212D01*
X011553Y014212D02*
X011953D01*
Y013012D02*
X012353D01*
X011953D02*
Y013362D01*
Y012662D02*
Y013012D01*
X012200Y011960D02*
Y012410D01*
Y011960D02*
X012650D01*
X012200Y011510D02*
Y011960D01*
X011553Y013012D02*
X011953D01*
X011750Y011960D02*
X012200D01*
X016387Y015268D02*
Y016197D01*
X016802Y016158D02*
X017550D01*
X021120Y015530D02*
Y018760D01*
X020605Y017860D02*
X021120D01*
X020605Y016860D02*
X021120D01*
X014550Y016895D02*
Y017310D01*
X021020Y018860D02*
X021120Y018760D01*
X014550Y017110D02*
X014800D01*
X020605Y018860D02*
X021020D01*
X020950Y015360D02*
X021120Y015530D01*
X020300Y015360D02*
X020950D01*
X016702Y015685D02*
X017200D01*
X014025Y017417D02*
X014443D01*
X014550Y017310D01*
X014443Y016788D02*
X014550Y016895D01*
X014025Y016788D02*
X014443D01*
X015128Y018282D02*
Y018835D01*
X015443Y018017D02*
Y018835D01*
X016100Y016510D02*
X016450D01*
X016802Y016158D01*
X017550D02*
X017677Y016285D01*
Y017688D01*
X017849Y017860D01*
X018400D01*
X016257Y015048D02*
X017888D01*
X018150Y015310D01*
X017487Y015218D02*
X017867Y015598D01*
X017999Y017360D02*
X018400D01*
X017867Y017228D02*
X017999Y017360D01*
X017867Y015598D02*
Y017228D01*
X016437Y015218D02*
X017487D01*
X016387Y015268D02*
X016437Y015218D01*
X018150Y015270D02*
Y015310D01*
X016072Y015233D02*
X016257Y015048D01*
X016072Y015233D02*
Y015685D01*
X015757Y015198D02*
Y015685D01*
X016077Y014878D02*
X018468D01*
X015757Y015198D02*
X016077Y014878D01*
D17*
X020300Y012960D02*
Y015360D01*
X013897Y019360D02*
X019250D01*
X018650Y013560D02*
X020300D01*
X016787Y016473D02*
X017175D01*
X016650Y016610D02*
X016787Y016473D01*
X016650Y016610D02*
Y016960D01*
X016500Y017110D02*
X016650Y016960D01*
X014800Y017110D02*
X016500D01*
X013522Y017732D02*
X014478D01*
X014793Y017417D01*
X017175D01*
X012853Y013012D02*
X013903D01*
X012847Y018908D02*
X013897D01*
X019950Y016360D02*
X020605D01*
X019949Y017360D02*
X020605D01*
X013507Y017103D02*
X014025D01*
X018700Y014160D02*
X019400D01*
X018150Y015310D02*
X018997Y016157D01*
Y018158D01*
X018795Y018360D02*
X018997Y018158D01*
X018400Y018360D02*
X018795D01*
X019600D02*
X020605D01*
X019400Y018160D02*
X019600Y018360D01*
X019400Y015360D02*
Y018160D01*
X015200Y014360D02*
X015700Y013860D01*
Y013010D02*
Y013860D01*
Y013010D02*
X015950Y012760D01*
X017950D01*
X018150Y012960D01*
X019400D01*
X017200Y013360D02*
X018450D01*
X018650Y013560D01*
X013450Y013360D02*
X015200D01*
X016200Y020460D02*
X016900Y019760D01*
X019575D01*
X019975Y019360D01*
X020605D01*
X019750Y018860D02*
X020605D01*
X019250Y019360D02*
X019750Y018860D01*
D18*
X013897Y018908D02*
Y020157D01*
X014200Y020460D01*
D19*
X015200Y013360D02*
D03*
Y014360D02*
D03*
X016200Y013360D02*
D03*
Y014360D02*
D03*
X017200Y013360D02*
D03*
D20*
Y014360D02*
D03*
D21*
X016200Y020460D02*
D03*
X018200D02*
D03*
X020200D02*
D03*
Y011960D02*
D03*
X016200D02*
D03*
X014200D02*
D03*
Y020460D02*
D03*
D22*
X012200Y011960D02*
D03*
Y020460D02*
D03*
D23*
X018468Y014878D02*
D03*
X019400Y018160D02*
D03*
X013897Y018908D02*
D03*
X013903Y013012D02*
D03*
X014800Y017110D02*
D03*
X015443Y018017D02*
D03*
X015128Y018282D02*
D03*
X016100Y016510D02*
D03*
X018150Y015310D02*
D03*
X019950Y016360D02*
D03*
X019949Y017360D02*
D03*
X016387Y016197D02*
D03*
X018700Y014160D02*
D03*
X017200Y015685D02*
D03*
M02*
