M72
M48
T1F00S00C0.0150
T2F00S00C0.0340
T3F00S00C0.0400
%
T01
X013903Y013012
X0187Y01416
X018468Y014878
X01815Y01531
X0172Y015685
X016387Y016197
X0161Y01651
X01995Y01636
X019949Y01736
X0194Y01816
X015443Y018017
X015128Y018282
X0148Y01711
X013897Y018908
T02
X0152Y01336
Y01436
X0162
Y01336
X0172
Y01436
T03
X0122Y01196
X0142
X0162
X0202
Y02046
X0182
X0162
X0142
X0122
M30
